<svg width="24" height="24" viewBox="0 0 24 24" fill="none" xmlns="http://www.w3.org/2000/svg">
<circle cx="12" cy="12" r="9" fill="url(#usds_branded_grad)"/>
<path d="M12 6.5C9.51 6.5 7.5 8.51 7.5 11C7.5 12.93 8.72 14.57 10.43 15.21V16.25C10.43 16.66 10.77 17 11.18 17H12.82C13.23 17 13.57 16.66 13.57 16.25V15.21C15.28 14.57 16.5 12.93 16.5 11C16.5 8.51 14.49 6.5 12 6.5ZM12 14.5C10.35 14.5 9 13.15 9 11.5C9 9.85 10.35 8.5 12 8.5C13.65 8.5 15 9.85 15 11.5C15 13.15 13.65 14.5 12 14.5Z" fill="white"/>
<rect x="11.1" y="6" width="1.8" height="2" rx="0.5" fill="white"/>
<defs>
<linearGradient id="usds_branded_grad" x1="12" y1="3" x2="12" y2="21" gradientUnits="userSpaceOnUse">
<stop stop-color="#F97B2D"/>
<stop offset="1" stop-color="#F5A623"/>
</linearGradient>
</defs>
</svg>
