<svg width="24" height="24" viewBox="0 0 24 24" fill="none" xmlns="http://www.w3.org/2000/svg">
<path fill-rule="evenodd" clip-rule="evenodd" d="M12 20C16.4183 20 20 16.4183 20 12C20 7.58172 16.4183 4 12 4C7.58172 4 4 7.58172 4 12C4 16.4183 7.58172 20 12 20ZM12 21C16.9706 21 21 16.9706 21 12C21 7.02944 16.9706 3 12 3C7.02944 3 3 7.02944 3 12C3 16.9706 7.02944 21 12 21Z" fill="currentColor"/>
<path d="M12.9 6.5V7.3C14.16 7.72 15 8.92 15 10.25C15 11.58 14.16 12.78 12.9 13.2V17.5H11.1V13.2C9.84 12.78 9 11.58 9 10.25C9 8.92 9.84 7.72 11.1 7.3V6.5H12.9Z" fill="currentColor"/>
</svg>
