<svg width="24" height="24" viewBox="0 0 24 24" fill="none" xmlns="http://www.w3.org/2000/svg">
<path fill-rule="evenodd" clip-rule="evenodd" d="M12 20C16.4183 20 20 16.4183 20 12C20 7.58172 16.4183 4 12 4C7.58172 4 4 7.58172 4 12C4 16.4183 7.58172 20 12 20ZM12 21C16.9706 21 21 16.9706 21 12C21 7.02944 16.9706 3 12 3C7.02944 3 3 7.02944 3 12C3 16.9706 7.02944 21 12 21Z" fill="currentColor"/>
<path d="M12.8 5.5V18.5H11.2V8.27C10.72 8.63 10.22 8.93 9.72 9.17C9.17 9.43 8.62 9.55 8.07 9.55V7.88C8.39 7.88 8.76 7.77 9.17 7.55C9.59 7.32 9.99 7.06 10.37 6.76C10.76 6.46 11.07 6.15 11.3 5.83V5.5H12.8Z" fill="currentColor"/>
</svg>
