<svg width="24" height="24" viewBox="0 0 24 24" fill="none" xmlns="http://www.w3.org/2000/svg">
<path fill-rule="evenodd" clip-rule="evenodd" d="M12 21C16.9706 21 21 16.9706 21 12C21 7.02944 16.9706 3 12 3C7.02944 3 3 7.02944 3 12C3 16.9706 7.02944 21 12 21Z" fill="currentColor" fill-opacity="0.15"/>
<path fill-rule="evenodd" clip-rule="evenodd" d="M12 21C16.9706 21 21 16.9706 21 12C21 7.02944 16.9706 3 12 3C7.02944 3 3 7.02944 3 12C3 16.9706 7.02944 21 12 21ZM12 8.5C10.35 8.5 9 9.85 9 11.5C9 13.15 10.35 14.5 12 14.5C13.65 14.5 15 13.15 15 11.5C15 9.85 13.65 8.5 12 8.5ZM11.1 6H12.9V8H11.1V6ZM11.1 15H12.9V17H11.1V15Z" fill="currentColor"/>
</svg>
