<svg width="24" height="24" viewBox="0 0 24 24" fill="none" xmlns="http://www.w3.org/2000/svg">
<rect width="100%" height="100%" fill="#1A1A2E"/>
<circle cx="12" cy="12" r="12" fill="#FFFFFF"/>
<path d="M12 5v1.5c-2.2.4-3.8 1.8-3.8 3.5 0 2 1.8 3 4.3 3.5 2 .4 2.8.9 2.8 1.7 0 .9-.9 1.5-2.3 1.5-1.6 0-2.9-.7-3.1-1.7H7.8c.3 1.9 1.9 3.2 4.2 3.5V20h1.5v-1.5c2.3-.4 3.8-1.8 3.8-3.7 0-2-1.7-3-4.2-3.5-2.1-.4-2.8-.9-2.8-1.6 0-.8.8-1.4 2.2-1.4 1.4 0 2.6.6 2.9 1.5h2.1C17 7.9 15.5 6.6 13.5 6.3V5H12z" fill="#FFFFFF"/>
</svg>