<svg width="24" height="24" viewBox="0 0 24 24" fill="none" xmlns="http://www.w3.org/2000/svg">
<rect width="24" height="24" fill="#CA8404"/>
<path fill-rule="evenodd" clip-rule="evenodd" d="M12 19.5C16.1421 19.5 19.5 16.1421 19.5 12C19.5 7.85786 16.1421 4.5 12 4.5C7.85786 4.5 4.5 7.85786 4.5 12C4.5 16.1421 7.85786 19.5 12 19.5ZM12 20.5C16.6944 20.5 20.5 16.6944 20.5 12C20.5 7.30558 16.6944 3.5 12 3.5C7.30558 3.5 3.5 7.30558 3.5 12C3.5 16.6944 7.30558 20.5 12 20.5Z" fill="#EAAC08"/>
<path d="M12.9 6.5V7.3C14.16 7.72 15 8.92 15 10.25C15 11.58 14.16 12.78 12.9 13.2V17.5H11.1V13.2C9.84 12.78 9 11.58 9 10.25C9 8.92 9.84 7.72 11.1 7.3V6.5H12.9Z" fill="white"/>
</svg>
