<svg width="24" height="24" viewBox="0 0 24 24" fill="none" xmlns="http://www.w3.org/2000/svg">
<rect width="100%" height="100%" fill="#1A1A2E"/>
<circle cx="12" cy="12" r="12" fill="#FFFFFF"/>
<path d="M12 4C7.582 4 4 7.582 4 12s3.582 8 8 8 8-3.582 8-8-3.582-8-8-8zm.8 12.8v.8h-1.6v-.8c-1.6-.4-2.8-1.6-2.8-3.2h1.6c0 .8.7 1.4 1.6 1.6V12c-1.6-.4-3.2-.9-3.2-2.8 0-1.6 1.2-2.8 3.2-3.2v-.8h1.6V6c1.6.4 2.8 1.6 2.8 3.2h-1.6c0-.8-.7-1.4-1.6-1.6V10c1.6.4 3.2.9 3.2 2.8 0 1.6-1.2 2.8-3.2 3.2z" fill="#FFFFFF"/>
<text x="12" y="22.5" text-anchor="middle" font-family="Arial,sans-serif" font-size="3.5" fill="#FFFFFF" font-weight="bold">.e</text>
</svg>